<?xml version="1.0" encoding="UTF-8"?>
<svg width="80px" height="65px" viewBox="0 0 80 65" version="1.1" xmlns="http://www.w3.org/2000/svg" xmlns:xlink="http://www.w3.org/1999/xlink">
    <!-- Generator: Sketch 43.2 (39069) - http://www.bohemiancoding.com/sketch -->
    <title>umami-logo</title>
    <desc>Created with Sketch.</desc>
    <defs></defs>
    <g id="Page-1" stroke="none" stroke-width="1" fill="none" fill-rule="evenodd">
        <g id="umami-logo" fill-rule="nonzero" fill="currentColor">
            <path d="M52.55,8.75 C57.15,8.75 56.45,20.45 54.5,25.75 C53.5,28.45 59.35,27.65 58.25,37.5 L57.45,44.75 C57.35,45.5 56.9,45.9 56.4,45.9 C55.95,45.9 55.5,45.5 55.5,44.75 L55.5,35.55 C55.5,34.05 53.55,34.05 53.55,35.55 L53.55,44.75 C53.55,45.5 53.05,45.9 52.55,45.9 C52.05,45.9 51.55,45.5 51.55,44.75 L51.55,35.55 C51.55,34.05 49.6,34.05 49.6,35.55 L49.6,44.75 C49.6,45.5 49.2,45.9 48.7,45.9 C48.25,45.9 47.75,45.5 47.65,44.75 L46.9,37.5 C45.9,27.65 51.6,28.45 50.6,25.75 C48.45,20 47.95,8.75 52.55,8.75 Z M66.85,8.75 C71,8.75 69.95,17.9 69.95,23.2 L70,44.3 C70,45.6 69.35,46.25 68.4,46.25 C66.05,46.25 62.05,42.35 62.05,34.15 L62.05,25.55 C62.05,22.6 66.1,24.45 66.1,22.9 C62.8,18.05 62.65,8.75 66.85,8.75 Z M2.5,-1.42108547e-14 L77.5,-1.42108547e-14 C80,-1.42108547e-14 80,-1.42108547e-14 80,2.5 L80,52.5 C80,55 80,55 77.5,55 L42.5,55 C35.75,61.5 21.9,65 7.55,65 L7.55,55 L2.5,55 C0,55 0,55 0,52.5 L0,2.5 C0,-1.42108547e-14 0,-1.42108547e-14 2.5,-1.42108547e-14 Z M37.5,5.55 C31.95,8.2 21.85,10 12.55,10.4 L12.55,59.9 C22.2,59.35 32.45,56.75 37.5,53 L37.5,5.55 Z M42.5,5 L42.5,50 L75,50 L75,5 L42.5,5 Z" id="Shape" transform="translate(40.000000, 32.500000) scale(-1, 1) rotate(-180.000000) translate(-40.000000, -32.500000) "></path>
        </g>
    </g>
</svg>